<svg version="1.1" id="Layer_1" xmlns="http://www.w3.org/2000/svg" xmlns:xlink="http://www.w3.org/1999/xlink" x="0px" y="0px" viewBox="0 0 32 32" style="enable-background:new 0 0 32 32;" xml:space="preserve">
<path d="M27.316,10H24V7c0-1.654-1.346-3-3-3H11C9.346,4,8,5.346,8,7v15c0,1.654,1.346,3,3,3h5v0.315C16,26.796,17.204,28,18.684,28
	h8.632C28.796,28,30,26.796,30,25.315V12.685C30,11.204,28.796,10,27.316,10z M11,23c-0.551,0-1-0.448-1-1V7c0-0.552,0.449-1,1-1h10
	c0.551,0,1,0.448,1,1v3v12c0,0.552-0.449,1-1,1h-5H11z" id="id_102" style="fill: rgb(255, 255, 255);"></path>
</svg>